<svg width="233" height="231" viewBox="0 0 233 231" fill="none" xmlns="http://www.w3.org/2000/svg">
<path d="M9 63.0989C4.029 63.0989 0 67.1279 0 72.0989V158.815C0 163.786 4.029 167.815 9 167.815C13.971 167.815 18 163.786 18 158.815V72.0989C18 67.1279 13.971 63.0989 9 63.0989Z" fill="white"/>
<path d="M51.9829 37.092C47.0119 37.092 42.9829 41.121 42.9829 46.092V184.822C42.9829 189.793 47.0119 193.822 51.9829 193.822C56.9539 193.822 60.9829 189.793 60.9829 184.822V46.092C60.9829 41.121 56.9539 37.092 51.9829 37.092Z" fill="white"/>
<path d="M94.9661 0.895996C89.9951 0.895996 85.9661 4.925 85.9661 9.896V221.017C85.9661 225.988 89.9951 230.017 94.9661 230.017C99.9371 230.017 103.966 225.988 103.966 221.017V9.896C103.966 4.926 99.9371 0.895996 94.9661 0.895996Z" fill="white"/>
<path d="M137.948 53.3611C132.977 53.3611 128.948 57.3901 128.948 62.3611V168.554C128.948 173.525 132.977 177.554 137.948 177.554C142.919 177.554 146.948 173.525 146.948 168.554V62.3611C146.948 57.3901 142.919 53.3611 137.948 53.3611Z" fill="white"/>
<path d="M180.931 63.0989C175.96 63.0989 171.931 67.1279 171.931 72.0989V158.815C171.931 163.786 175.96 167.815 180.931 167.815C185.902 167.815 189.931 163.786 189.931 158.815V72.0989C189.931 67.1279 185.901 63.0989 180.931 63.0989Z" fill="white"/>
<path d="M223.914 91.9189C218.943 91.9189 214.914 95.9479 214.914 100.919V129.996C214.914 134.967 218.943 138.996 223.914 138.996C228.885 138.996 232.914 134.967 232.914 129.996V100.919C232.914 95.9479 228.885 91.9189 223.914 91.9189Z" fill="white"/>
</svg>
