<svg width="395" height="395" viewBox="0 0 395 395" fill="none" xmlns="http://www.w3.org/2000/svg">
<g filter="url(#filter0_d_150_366)">
<path d="M197.501 291.21C239.546 291.21 273.751 257.004 273.751 214.96V94.5256C273.751 52.4797 239.546 18.2739 197.501 18.2739C155.456 18.2739 121.249 52.4797 121.249 94.5246V214.958C121.249 257.004 155.455 291.21 197.501 291.21ZM144.053 94.5246C144.053 65.0618 168.032 41.0777 197.5 41.0777C226.968 41.0777 250.947 65.0618 250.947 94.5246V214.958C250.947 244.433 226.968 268.405 197.5 268.405C168.032 268.405 144.053 244.433 144.053 214.958V94.5246Z" fill="white"/>
<path d="M217.18 329.692C268.022 329.692 309.383 288.337 309.383 237.495C309.383 231.195 304.275 226.093 297.981 226.093C291.686 226.093 286.579 231.195 286.579 237.495C286.579 275.755 255.445 306.887 217.18 306.887H177.82C139.555 306.887 108.421 275.754 108.421 237.495C108.421 231.195 103.314 226.093 97.0196 226.093C90.7254 226.093 85.6177 231.195 85.6177 237.495C85.6177 288.337 126.978 329.692 177.82 329.692H186.099V353.922H132.652C126.358 353.922 121.25 359.029 121.25 365.324C121.25 371.623 126.358 376.725 132.652 376.725H262.349C268.644 376.725 273.751 371.623 273.751 365.324C273.751 359.029 268.644 353.922 262.349 353.922H208.903V329.692H217.18Z" fill="white"/>
</g>
<defs>
<filter id="filter0_d_150_366" x="81.6177" y="18.2739" width="231.765" height="366.452" filterUnits="userSpaceOnUse" color-interpolation-filters="sRGB">
<feFlood flood-opacity="0" result="BackgroundImageFix"/>
<feColorMatrix in="SourceAlpha" type="matrix" values="0 0 0 0 0 0 0 0 0 0 0 0 0 0 0 0 0 0 127 0" result="hardAlpha"/>
<feOffset dy="4"/>
<feGaussianBlur stdDeviation="2"/>
<feComposite in2="hardAlpha" operator="out"/>
<feColorMatrix type="matrix" values="0 0 0 0 0 0 0 0 0 0 0 0 0 0 0 0 0 0 0.25 0"/>
<feBlend mode="normal" in2="BackgroundImageFix" result="effect1_dropShadow_150_366"/>
<feBlend mode="normal" in="SourceGraphic" in2="effect1_dropShadow_150_366" result="shape"/>
</filter>
</defs>
</svg>
