<svg xmlns="http://www.w3.org/2000/svg" xmlns:xlink="http://www.w3.org/1999/xlink" viewBox="0,0,256,256" width="50px" height="50px" fill-rule="nonzero"><g fill="#303030" fill-rule="nonzero" stroke="none" stroke-width="1" stroke-linecap="butt" stroke-linejoin="miter" stroke-miterlimit="10" stroke-dasharray="" stroke-dashoffset="0" font-family="none" font-weight="none" font-size="none" text-anchor="none" style="mix-blend-mode: normal"><g transform="scale(5.12,5.12)"><path d="M40,0c-5.46484,0 -9.92187,4.39844 -10,9.84375c0,0.05078 0,0.10547 0,0.15625c0,3.6875 1.99609,6.89063 4.96875,8.625c1.47656,0.86328 3.19922,1.375 5.03125,1.375c5.51563,0 10,-4.48437 10,-10c0,-5.51562 -4.48437,-10 -10,-10zM28.0625,10.84375l-10.21875,5.125c2.37891,2.0625 3.94141,5.03125 4.125,8.375l10.34375,-5.1875c-2.41406,-2.02734 -4.01172,-4.98047 -4.25,-8.3125zM10,15c-5.51562,0 -10,4.48438 -10,10c0,5.51563 4.48438,10 10,10c2.05078,0 3.94141,-0.625 5.53125,-1.6875c2.68359,-1.79297 4.46875,-4.83984 4.46875,-8.3125c0,-3.58984 -1.91016,-6.73437 -4.75,-8.5c-1.53125,-0.95312 -3.32031,-1.5 -5.25,-1.5zM21.96875,25.65625c-0.18359,3.33984 -1.71875,6.33984 -4.09375,8.40625l10.1875,5.09375c0.23828,-3.33203 1.80859,-6.28125 4.21875,-8.3125zM40,30c-2.0625,0 -3.96875,0.64453 -5.5625,1.71875c-2.66797,1.79688 -4.4375,4.82422 -4.4375,8.28125c0,0.01563 0,0.01563 0,0.03125c-0.04297,0.00391 -0.08203,0.02734 -0.125,0.03125l0.125,0.0625c0.06641,5.45703 4.52734,9.875 10,9.875c5.51563,0 10,-4.48437 10,-10c0,-5.51562 -4.48437,-10 -10,-10z"></path></g></g></svg>